<svg width="1042" height="555" viewBox="0 0 1042 555" fill="none" xmlns="http://www.w3.org/2000/svg">
<g id="undraw_programming_2svr 1">
<g clip-path="url(#clip0)">
<path id="Vector" d="M961.48 438.21C960.32 440.71 959.163 443.177 958.01 445.61C956.21 449.39 954.433 453.097 952.68 456.73C951.9 458.34 951.12 459.92 950.36 461.5C941.76 479.07 933.73 494.61 926.91 507.39C920.721 518.97 911.533 528.672 900.306 535.481C889.08 542.29 876.229 545.954 863.1 546.09L711.45 547.74H709.85L696.85 547.88L685.73 548L651.63 548.37H650.25L632.89 548.56H632.36L525.36 549.72L429.85 550.72L418.74 550.84L349.74 551.59H349.66L304.91 552.07H304.43L162.93 553.6L120.6 554.06C111.567 554.162 102.571 552.874 93.93 550.24C78.8921 545.698 65.3774 537.141 54.84 525.49C36.66 505.46 23.41 482.09 14.51 456.73C13.2233 453.07 12.0233 449.363 10.91 445.61C-19.9 341.46 17.66 207.09 85.26 117.17C88.0933 113.41 90.9733 109.743 93.9 106.17L93.97 106.09C114.76 80.57 138.07 59.25 162.9 44.09C206.9 17.18 255.65 9.60001 303.6 32.19C344.17 51.31 382.05 60.3 418.77 62.74C422.48 62.98 426.19 63.16 429.88 63.27C514.11 65.92 593.05 35.57 685.75 15.98C689.44 15.2 693.14 14.43 696.87 13.7C763 0.540001 836.36 -6.39999 923.6 8.19001C932.664 9.67067 941.607 11.8097 950.36 14.59C954.207 15.83 957.913 17.1633 961.48 18.59C1003.12 35.53 1025.83 66.83 1035.48 106.05C1036.39 109.69 1037.18 113.393 1037.85 117.16C1054.96 211.5 1004.85 345.32 961.48 438.21Z" fill="#FB7B6B"/>
<g id="Group" opacity="0.1">
<path id="Vector_2" opacity="0.1" d="M162.9 44.09V553.71L120.57 554.17C111.537 554.272 102.541 552.984 93.9 550.35V106.09H93.97C114.76 80.54 138.07 59.22 162.9 44.09Z" fill="#D7385E"/>
<path id="Vector_3" opacity="0.1" d="M1037.9 117.17H85.26C88.0933 113.41 90.9733 109.743 93.9 106.17V106.09H1035.53C1036.44 109.71 1037.23 113.403 1037.9 117.17Z" fill="#D7385E"/>
<path id="Vector_4" opacity="0.1" d="M961.48 18.6V445.6H958.01C956.21 449.38 954.433 453.087 952.68 456.72C951.9 458.33 951.12 459.91 950.36 461.49V14.56C954.207 15.8 957.913 17.1467 961.48 18.6Z" fill="#D7385E"/>
<path id="Vector_5" opacity="0.1" d="M696.87 13.67V547.92L685.75 548.04V15.95C689.44 15.17 693.14 14.4 696.87 13.67Z" fill="#D7385E"/>
<path id="Vector_6" opacity="0.1" d="M429.88 63.24V550.82L418.77 550.94V62.71C422.48 62.95 426.19 63.09 429.88 63.24Z" fill="#D7385E"/>
<path id="Vector_7" opacity="0.1" d="M958.01 445.61C956.21 449.39 954.433 453.097 952.68 456.73H14.51C13.2233 453.07 12.0233 449.363 10.91 445.61H958.01Z" fill="#D7385E"/>
</g>
<path id="Vector_8" d="M230.6 265.83H211.6V323.49H230.6V265.83Z" fill="#3F3D56"/>
<path id="Vector_9" d="M741.93 262.83H722.93V323.83H741.93V262.83Z" fill="#3F3D56"/>
<path id="Vector_10" d="M863.1 533.65V546.65L711.18 548.05L709.56 548.08L651.82 548.61L650.44 548.63L632.89 548.78H632.37L525.39 549.77L349.78 551.4H349.63L304.98 551.82L304.5 551.83L106.1 553.65V538.65L152.75 510.65L246.35 509.87L248.35 509.86L249.01 509.85L251.01 509.82L295.95 509.45L297.96 509.44L298.6 509.43L300.6 509.42L315.01 509.3L315.39 509.29L350.94 508.99H351.23L628.63 506.65L635.42 506.6H636.1L641.28 506.55L678.93 506.24L680.93 506.21L682.78 506.19H683.74L695.45 506.1L697.77 506.07L700.88 506.05L710.63 505.96L726.1 505.83L728.1 505.81L731.58 505.79H732.23L806.94 505.15L863.1 533.65Z" fill="#65617D"/>
<path id="Vector_11" opacity="0.2" d="M863.1 533.65V546.65L711.18 548.05L709.56 548.08L651.82 548.61L650.44 548.63L632.89 548.78H632.37L525.39 549.77L349.78 551.4H349.63L304.98 551.82L304.5 551.83L106.1 553.65V538.65L152.75 510.65L246.35 509.87L248.35 509.86L249.01 509.85L251.01 509.82L295.95 509.45L297.96 509.44L298.6 509.43L300.6 509.42L315.01 509.3L315.39 509.29L350.94 508.99H351.23L628.63 506.65L635.42 506.6H636.1L641.28 506.55L678.93 506.24L680.93 506.21L682.78 506.19H683.74L695.45 506.1L697.77 506.07L700.88 506.05L710.63 505.96L726.1 505.83L728.1 505.81L731.58 505.79H732.23L806.94 505.15L863.1 533.65Z" fill="black"/>
<path id="Vector_12" d="M296.1 483.66V508.15C296.101 509.31 295.772 510.446 295.152 511.427C294.533 512.408 293.648 513.192 292.6 513.69C291.82 514.068 290.967 514.273 290.1 514.29L255.2 515.03C254.268 515.052 253.343 514.857 252.5 514.46C251.434 513.971 250.53 513.186 249.897 512.199C249.265 511.211 248.929 510.063 248.93 508.89V483.66H296.1Z" fill="#3F3D56"/>
<path id="Vector_13" opacity="0.1" d="M296.1 483.66V508.15C296.101 509.31 295.772 510.446 295.152 511.427C294.533 512.408 293.648 513.192 292.6 513.69C291.82 514.068 290.967 514.273 290.1 514.29L255.2 515.03C254.268 515.052 253.343 514.857 252.5 514.46C251.434 513.971 250.53 513.186 249.897 512.199C249.265 511.211 248.929 510.063 248.93 508.89V483.66H296.1Z" fill="black"/>
<path id="Vector_14" d="M298.1 483.66V508.15C298.101 509.31 297.772 510.446 297.152 511.427C296.533 512.408 295.648 513.192 294.6 513.69C293.82 514.068 292.967 514.273 292.1 514.29L257.2 515.03C256.268 515.052 255.343 514.857 254.5 514.46C253.434 513.971 252.53 513.186 251.897 512.199C251.265 511.211 250.929 510.063 250.93 508.89V483.66H298.1Z" fill="#3F3D56"/>
<path id="Vector_15" d="M728.1 483.66H680.93V515.16H728.1V483.66Z" fill="#3F3D56"/>
<path id="Vector_16" opacity="0.1" d="M728.1 483.66H680.93V515.16H728.1V483.66Z" fill="black"/>
<path id="Vector_17" d="M726.1 483.66H678.93V515.16H726.1V483.66Z" fill="#3F3D56"/>
<path id="Vector_18" opacity="0.1" d="M230.6 265.82V271.55L211.6 271.06V265.82H230.6Z" fill="black"/>
<path id="Vector_19" d="M355.66 104.4L332.83 268.4C332.685 269.448 332.16 270.405 331.353 271.089C330.547 271.774 329.517 272.137 328.46 272.11L145.66 267.37L142.19 267.28C141.586 267.266 140.991 267.124 140.446 266.865C139.9 266.605 139.415 266.234 139.022 265.774C138.63 265.315 138.339 264.777 138.168 264.198C137.997 263.618 137.95 263.009 138.03 262.41L163.66 90.73C163.825 89.6666 164.383 88.7037 165.224 88.0317C166.064 87.3596 167.126 87.0272 168.2 87.1L351.66 99.52C352.252 99.5543 352.83 99.7109 353.359 99.98C353.887 100.249 354.354 100.625 354.73 101.083C355.105 101.542 355.382 102.073 355.542 102.644C355.702 103.215 355.743 103.813 355.66 104.4Z" fill="#65617D"/>
<path id="Monitor1" d="M175.93 99.16L156.6 250.49L324.6 255.82L345.26 109.82L175.93 99.16Z" fill="#D7385E"/>
<path id="Vector_20" d="M583.94 96.82H389.93C386.986 96.82 384.6 99.2063 384.6 102.15V264.82C384.6 267.764 386.986 270.15 389.93 270.15H583.94C586.884 270.15 589.27 267.764 589.27 264.82V102.15C589.27 99.2063 586.884 96.82 583.94 96.82Z" fill="#65617D"/>
<path id="Monitor2" d="M580.26 108.49H394.26V252.82H580.26V108.49Z" fill="#6D54A9"/>
<path id="Vector_21" opacity="0.1" d="M741.93 262.82V266.61L722.93 267V262.82H741.93Z" fill="black"/>
<path id="Vector_22" d="M827.66 259.62C827.687 260.034 827.63 260.45 827.492 260.842C827.355 261.233 827.139 261.593 826.859 261.9C826.579 262.206 826.24 262.453 825.862 262.624C825.484 262.796 825.075 262.89 824.66 262.9L637.46 266.77C636.682 266.786 635.927 266.507 635.347 265.99C634.766 265.472 634.403 264.754 634.33 263.98L618.24 96.7C618.2 96.285 618.245 95.8662 618.372 95.4691C618.499 95.072 618.705 94.7047 618.978 94.3896C619.251 94.0745 619.585 93.8181 619.96 93.636C620.335 93.4539 620.744 93.3498 621.16 93.33L806.94 84.09L808.94 83.99C809.735 83.9481 810.515 84.2167 811.116 84.7391C811.717 85.2615 812.091 85.9969 812.16 86.79L827.66 259.62Z" fill="#65617D"/>
<path id="Monitor3" d="M628.93 103.16L798.6 94.82L812.93 246.82L644.6 250.82L628.93 103.16Z" fill="#CE75C2"/>
<path id="Vector_23" opacity="0.1" d="M827.66 259.62C827.687 260.034 827.63 260.45 827.492 260.842C827.355 261.233 827.139 261.593 826.859 261.9C826.579 262.206 826.24 262.453 825.862 262.624C825.484 262.796 825.075 262.89 824.66 262.9L806.94 84.09L808.94 83.99C809.735 83.9481 810.515 84.2167 811.116 84.7391C811.717 85.2615 812.091 85.9969 812.16 86.79L827.66 259.62Z" fill="black"/>
<path id="Vector_24" opacity="0.1" d="M168.23 87.09L145.66 267.37L142.19 267.28C141.586 267.266 140.991 267.124 140.446 266.865C139.9 266.605 139.415 266.234 139.022 265.774C138.63 265.315 138.339 264.777 138.168 264.198C137.997 263.618 137.95 263.009 138.03 262.41L163.66 90.73C163.823 89.6592 164.385 88.6895 165.232 88.0147C166.079 87.3398 167.15 87.0096 168.23 87.09Z" fill="black"/>
<path id="Vector_25" opacity="0.1" d="M230.6 306.41H211.6V323.49H230.6V306.41Z" fill="black"/>
<path id="Vector_26" opacity="0.1" d="M298.1 483.65V488.62L250.93 489.88V483.65H298.1Z" fill="black"/>
<path id="Vector_27" d="M381.35 312.36V480.56C381.338 481.587 380.931 482.569 380.215 483.305C379.498 484.04 378.526 484.472 377.5 484.51L185.85 489.61H185.8C184.756 489.597 183.759 489.177 183.021 488.439C182.283 487.701 181.863 486.704 181.85 485.66V312.36C181.863 311.316 182.283 310.319 183.021 309.581C183.759 308.843 184.756 308.423 185.8 308.41H377.4C378.444 308.423 379.441 308.843 380.179 309.581C380.917 310.319 381.337 311.316 381.35 312.36Z" fill="#65617D"/>
<path id="Vector_28" opacity="0.1" d="M185.85 308.41V489.61H185.8C184.756 489.597 183.759 489.177 183.021 488.439C182.283 487.701 181.863 486.704 181.85 485.66V312.36C181.863 311.316 182.283 310.319 183.021 309.581C183.759 308.843 184.756 308.423 185.8 308.41H185.85Z" fill="black"/>
<path id="Vector_29" d="M194.6 319.15H372.1V467.4L194.6 471.4V319.15Z" fill="#D4DFEC"/>
<path id="Vector_30" opacity="0.1" d="M741.93 306.41H722.93V323.83H741.93V306.41Z" fill="black"/>
<path id="Vector_31" opacity="0.1" d="M726.1 483.65V490.06L678.93 488.8V483.65H726.1Z" fill="black"/>
<path id="Vector_32" d="M788.35 312.36V485.66C788.337 486.712 787.91 487.717 787.161 488.456C786.412 489.196 785.402 489.61 784.35 489.61L592.66 484.51C591.634 484.472 590.662 484.04 589.945 483.305C589.229 482.569 588.822 481.587 588.81 480.56V312.36C588.823 311.316 589.243 310.319 589.981 309.581C590.719 308.843 591.716 308.423 592.76 308.41H784.36C785.411 308.413 786.418 308.828 787.164 309.567C787.911 310.306 788.337 311.31 788.35 312.36Z" fill="#65617D"/>
<path id="Vector_33" opacity="0.1" d="M788.35 312.36V485.66C788.337 486.712 787.91 487.717 787.161 488.456C786.412 489.196 785.402 489.61 784.35 489.61V308.41C785.402 308.41 786.412 308.824 787.161 309.564C787.91 310.303 788.337 311.308 788.35 312.36Z" fill="black"/>
<path id="Monitor4" d="M775.6 319.15H598.1V467.4L775.6 471.4V319.15Z" fill="#D4DFEC"/>
<path id="Vector_34" d="M583.85 312.36V480.56C583.838 481.587 583.431 482.569 582.715 483.305C581.998 484.04 581.026 484.472 580 484.51L388.35 489.61C387.298 489.61 386.288 489.196 385.539 488.456C384.79 487.717 384.363 486.712 384.35 485.66V312.36C384.363 311.316 384.783 310.319 385.521 309.581C386.259 308.843 387.256 308.423 388.3 308.41H579.9C580.944 308.423 581.941 308.843 582.679 309.581C583.417 310.319 583.837 311.316 583.85 312.36Z" fill="#65617D"/>
<path id="Monitor5" d="M397.1 319.15H574.6V467.4L397.1 471.4V319.15Z" fill="#D4DFEC"/>
<path id="Vector_35" opacity="0.1" d="M863.1 533.65V546.65L711.18 548.05L709.56 548.08L651.82 548.61L650.44 548.63L632.89 548.78H632.37L525.39 549.77L349.78 551.4H349.63L304.98 551.82L304.5 551.83L106.1 553.65V538.65L308.61 537.32H309.09L350.08 537.04H350.27L633.35 535.17H633.64L633.81 535.16H634.28L639.07 535.13H640.53L715.02 534.63L719.42 534.61L720.4 534.6L863.1 533.65Z" fill="black"/>
<g id="Head">
<path id="Vector_36" d="M538.6 377.16C538.6 377.16 439.1 389.16 448.6 377.16C452.04 372.82 452.99 359.96 452.8 345.31C452.74 340.86 452.58 336.25 452.35 331.66C451.25 309.66 448.6 288.16 448.6 288.16C448.6 288.16 535.6 247.16 525.6 279.66C521.6 292.79 522.91 311.23 525.95 328.54C526.84 333.59 527.87 338.54 528.95 343.24C531.586 354.704 534.807 366.025 538.6 377.16Z" fill="#FBBEBE"/>
<path id="Vector_37" opacity="0.1" d="M525.41 328.408C523.941 329.065 522.439 329.646 520.91 330.148C510.13 333.868 499.26 337.618 487.91 338.978C476.56 340.338 464.65 339.138 454.75 333.478C453.711 332.891 452.709 332.24 451.75 331.528C450.65 309.528 448 288.028 448 288.028C448 288.028 535 247.028 525 279.528C521.02 292.658 522.37 311.098 525.41 328.408Z" fill="black"/>
<path id="Vector_38" d="M487.33 329.66C515.679 329.66 538.66 306.679 538.66 278.33C538.66 249.981 515.679 227 487.33 227C458.981 227 436 249.981 436 278.33C436 306.679 458.981 329.66 487.33 329.66Z" fill="#FBBEBE"/>
<path id="Vector_39" d="M474.598 193.987C473.171 194.364 471.675 194.402 470.23 194.098C468.786 193.794 467.432 193.157 466.278 192.237L468.358 195.127C467.132 195.269 465.89 195.14 464.719 194.752C463.548 194.363 462.476 193.723 461.578 192.877C461.389 195.464 461.497 198.064 461.898 200.627C458.456 200.793 455.068 199.73 452.338 197.627C452.285 198.529 452.509 199.426 452.981 200.197C453.453 200.967 454.15 201.575 454.978 201.937C451.521 201.524 448.031 202.383 445.161 204.354C442.29 206.325 440.235 209.272 439.378 212.647L444.598 213.127C440.495 214.003 436.813 216.25 434.158 219.497C432.558 221.497 431.338 224.057 432.038 226.497C432.738 228.937 436.118 230.497 437.958 228.757C435.34 231.881 433.438 235.54 432.384 239.477C431.331 243.414 431.151 247.533 431.858 251.547C432.332 253.257 432.488 255.04 432.318 256.807C431.988 258.457 430.948 259.887 430.428 261.497C429.428 264.417 430.378 267.587 431.268 270.497L435.958 285.917C437.658 291.487 439.348 297.067 441.568 302.457C443.14 305.865 444.476 309.376 445.568 312.967C446.828 317.807 446.878 323.107 449.568 327.337C451.411 329.999 453.876 332.172 456.748 333.667C466.638 339.327 478.588 340.527 489.908 339.167C501.228 337.807 512.088 334.057 522.858 330.337C525.25 329.616 527.547 328.609 529.698 327.337C537.148 322.457 538.808 312.477 540.198 303.687C541.748 293.887 543.818 284.107 547.488 274.887C549.668 269.397 552.488 263.827 552.008 257.947C551.398 250.137 545.218 243.807 543.688 236.127C543.176 233.56 543.199 230.915 543.758 228.357C544.232 226.833 544.498 225.252 544.548 223.657C544.378 220.437 541.738 217.957 539.258 215.887C533.878 211.394 528.325 207.147 522.598 203.147C522.308 201.147 525.028 200.287 526.258 198.707C527.998 196.477 526.198 192.937 523.558 191.897C520.918 190.857 517.958 191.537 515.208 192.227C515.387 190.819 515.107 189.392 514.41 188.156C513.712 186.92 512.634 185.943 511.337 185.368C510.039 184.794 508.591 184.654 507.207 184.969C505.824 185.285 504.579 186.038 503.658 187.117C502.927 185.442 501.761 183.995 500.28 182.925C498.798 181.856 497.057 181.204 495.238 181.037C488.608 180.517 488.478 185.587 484.238 188.377C479.998 191.167 476.498 187.487 473.238 184.807C472.639 186.322 472.449 187.968 472.688 189.579C472.927 191.191 473.585 192.711 474.598 193.987Z" fill="#3F3D56"/>
</g>
<path id="Vector_40" opacity="0.1" d="M538.6 377.16C538.6 377.16 439.1 389.16 448.6 377.16C452.04 372.82 452.99 359.96 452.8 345.31C467.97 338.83 487.27 343.66 487.27 343.66C507.59 339.61 520.62 340.4 528.95 343.24C531.586 354.704 534.807 366.025 538.6 377.16Z" fill="black"/>
<path id="Vector_41" d="M349.74 552.53V551.69L525.36 549.78L632.36 548.78H632.66L632.55 550.26L632.7 548.78H632.89V548.61L634.26 535.16L634.78 530.07L634.94 528.48L635.08 527.15L641.26 506.54L647.44 485.96L652.64 468.63L660.58 442.15C660.58 442.15 656.08 431.65 653.58 428.65C651.08 425.65 648.58 405.15 648.58 405.15C648.58 405.15 627.24 384.82 617.91 382.48C614 381.48 606.28 380.15 598.08 378.48C595.01 377.86 591.86 377.2 588.83 376.48C587.12 376.09 585.44 375.68 583.83 375.27C580.696 374.487 577.608 373.533 574.58 372.41C572.992 371.833 571.481 371.064 570.08 370.12C562.73 364.73 544.31 364.12 543.6 364.12C543.598 364.097 543.598 364.073 543.6 364.05V363.96C543.626 363.54 543.626 363.12 543.6 362.7C543.6 362.3 543.6 361.83 543.51 361.3C543.51 361.14 543.51 360.97 543.44 360.8C543.39 360.44 543.33 360.06 543.24 359.66C543.21 359.481 543.17 359.304 543.12 359.13C542.83 357.925 542.411 356.755 541.87 355.64C541.8 355.48 541.71 355.31 541.63 355.15C541.14 354.226 540.571 353.346 539.93 352.52C539.8 352.35 539.66 352.17 539.51 352C538.691 351.034 537.78 350.15 536.79 349.36C536.52 349.15 536.24 348.93 535.95 348.73C535.788 348.599 535.618 348.479 535.44 348.37L534.55 347.79L533.72 347.31C532.99 346.91 532.22 346.52 531.38 346.15C531.12 346.03 530.84 345.92 530.56 345.81C530.28 345.7 529.84 345.53 529.47 345.39H529.41L528.66 345.09C528.09 344.9 527.51 344.73 526.9 344.56L525.97 344.32L524.97 344.09L523.97 343.88C522.97 343.68 521.9 343.5 520.78 343.36L519.64 343.22L518.47 343.1L517.26 343L515.54 342.9L513.54 342.83C504.719 342.829 495.923 343.764 487.3 345.62C481.309 344.287 475.173 343.722 469.04 343.94H468.17L467.17 344H466.53L465.24 344.12C464.81 344.12 464.37 344.21 463.94 344.27C463.51 344.33 463.06 344.38 462.63 344.45L461.97 344.56C461.32 344.67 460.66 344.79 459.97 344.93C459.75 344.97 459.53 345.02 459.31 345.08C458.44 345.27 457.57 345.5 456.71 345.76C456.28 345.88 455.85 346.02 455.42 346.17C455.2 346.23 454.99 346.31 454.78 346.39L454.14 346.62L453.51 346.87L452.76 347.17C452.38 347.33 452.01 347.5 451.64 347.68C451.43 347.77 451.22 347.87 451.02 347.98C450.82 348.09 450.61 348.18 450.42 348.29C448.159 349.458 446.069 350.932 444.21 352.67L443.7 353.16L443.2 353.67C443.03 353.84 442.87 354.02 442.71 354.2C442.058 354.912 441.45 355.664 440.89 356.45C440.73 356.66 440.58 356.87 440.43 357.09C439.795 358.026 439.221 359.001 438.71 360.01C438.58 360.25 438.46 360.5 438.34 360.74C437.524 362.429 436.855 364.186 436.34 365.99C436.153 366.657 435.983 367.323 435.83 367.99C435.83 367.99 414.66 377.33 397.1 384.09C392.43 385.89 388.03 387.52 384.35 388.75C383.28 389.11 382.28 389.44 381.35 389.75C379.332 390.479 377.234 390.963 375.1 391.19C374.094 391.206 373.091 391.3 372.1 391.47C364.03 392.78 350.2 398.47 348.69 404.18C348.567 404.636 348.533 405.111 348.59 405.58C348.59 405.58 348.59 405.65 348.59 405.69C349.59 412.69 342.59 411.69 342.59 411.69C342.59 411.69 340.09 430.19 336.59 435.19C334.06 438.79 332.33 446.82 332.11 452.88C331.984 454.768 332.132 456.664 332.55 458.51C332.55 458.56 332.55 458.61 332.55 458.65C332.95 459.99 331.99 463.65 330.36 468.34C328.59 473.49 326.01 479.89 323.53 485.93C319.79 495.05 316.27 503.33 316.05 505.15C315.96 505.96 315.7 507.41 315.34 509.28C313.88 516.9 310.64 531.41 309.04 537.28C307.85 541.66 306.12 547.66 304.93 551.78C304.93 551.9 304.86 552.02 304.83 552.13L349.66 551.69V552.53H349.8H349.74Z" fill="#2C2C2C"/>
<path id="Vector_42" opacity="0.1" d="M366.1 434.66C366.1 434.66 423.1 464.16 443.6 460.66L366.1 434.66Z" fill="black"/>
<path id="Vector_43" opacity="0.1" d="M482.1 422.66C482.1 422.66 537.6 440.66 556.1 443.16C574.6 445.66 482.1 422.66 482.1 422.66Z" fill="black"/>
<path id="Vector_44" opacity="0.1" d="M543.66 364.74C514.66 370.08 460.06 368.93 436.46 368.12C445.11 337.12 487.29 347.66 487.29 347.66C539.5 337.24 543.5 358.86 543.66 364.74Z" fill="black"/>
<path id="Vector_45" d="M543.66 362.74C514.66 368.08 460.06 366.93 436.46 366.12C445.11 335.12 487.29 345.66 487.29 345.66C539.5 335.24 543.5 356.86 543.66 362.74Z" fill="#FB7B6B"/>
<path id="Hand" d="M697.6 499.41C697.6 499.41 731.76 494.16 732.43 509.16C733.1 524.16 715.01 534.64 715.01 534.64L697.6 499.41Z" fill="#FBBEBE"/>
<path id="Vector_46" d="M722.93 529.41C722.93 529.41 722.04 531.53 720.4 534.6C717.919 539.323 714.899 543.743 711.4 547.77L711.13 548.06H709.51L651.77 548.59H650.39L650.22 548.39L639.02 535.1L634.8 530.09L634.63 529.88L634.27 529.46L634.07 529.22L633.81 528.91L625.6 519.17L628.6 506.67L633.71 485.61L633.84 485.1L634.84 481.1L635.55 478.1L637.93 468.32L646.09 434.67L660.59 442.17L675.88 469.17L684.09 483.67H688.59C689.44 483.67 691.39 485.31 693.35 487.2C694.05 487.87 694.75 488.58 695.35 489.2C697.13 491.04 698.54 492.62 698.54 492.62C698.54 492.62 705.83 492.78 707.79 498.52C707.891 498.798 707.975 499.082 708.04 499.37C708.691 501.626 709.537 503.821 710.57 505.93C711.86 508.74 713.48 511.93 715.12 515.12C718.17 520.97 721.27 526.54 722.41 528.56L722.55 528.81L722.93 529.41Z" fill="#2C2C2C"/>
<path id="Vector_47" opacity="0.1" d="M637.03 484.26L636.93 485.69V485.79L636.76 488.09L635.43 506.6L633.82 528.9L633.36 535.18L632.36 548.62V548.79L525.36 549.79L349.77 551.69V552.53H349.63V551.69V551.41L350.08 537.05L350.94 508.99L351.68 485.2L351.75 482.83C351.794 481.4 352.129 479.993 352.734 478.696C353.34 477.4 354.203 476.24 355.272 475.288C356.341 474.336 357.592 473.612 358.95 473.161C360.308 472.709 361.744 472.538 363.17 472.66C367.89 473.06 374.02 473.55 381.35 474.07L384.35 474.29C426.68 477.23 504.91 481.03 583.85 476.29C585.51 476.2 587.18 476.1 588.85 475.98C601.09 475.21 613.32 474.22 625.43 472.98C626.961 472.82 628.508 472.997 629.963 473.499C631.418 474.001 632.746 474.817 633.851 475.887C634.957 476.958 635.815 478.258 636.364 479.696C636.913 481.134 637.141 482.675 637.03 484.21V484.26Z" fill="black"/>
<path id="Vector_48" d="M349.74 552.53V551.69L525.36 549.78L632.36 548.78H632.66V548.61L633.66 535.17L634.09 529.17L635.73 506.56L637.02 488.66V488.22C637.08 487.395 637.043 486.566 636.91 485.75C636.916 485.717 636.916 485.683 636.91 485.65C636.635 483.962 635.948 482.369 634.91 481.01C633.809 479.598 632.366 478.49 630.718 477.79C629.07 477.09 627.271 476.822 625.49 477.01C613.38 478.25 601.15 479.24 588.91 480.01C587.24 480.13 585.57 480.23 583.91 480.32C504.97 485.01 426.74 481.21 384.41 478.32L381.41 478.1C374.08 477.58 367.95 477.1 363.23 476.69C360.633 476.471 358.048 477.221 355.972 478.797C353.896 480.372 352.478 482.66 351.99 485.22C351.889 485.761 351.829 486.31 351.81 486.86L351.13 509.02L350.2 537.09L349.76 551.45V551.73V552.57L349.74 552.53Z" fill="#3F3D56"/>
<path id="Vector_49" opacity="0.1" d="M637.33 491.27L636.1 506.6L634.27 529.45L633.81 535.17L632.81 547.98L632.75 548.62V548.79L632.6 550.27L632.71 548.79H632.42L525.42 549.79L349.77 551.69V551.41L350.26 537.05L351.26 508.99L351.9 490.34C351.931 489.279 352.228 488.243 352.762 487.326C353.297 486.409 354.052 485.64 354.96 485.09C356.092 484.396 357.416 484.081 358.74 484.19C360.84 484.36 363.42 484.56 366.43 484.78C371.32 485.14 377.35 485.56 384.37 486C397.37 486.82 413.68 487.7 432.37 488.42C484.37 490.42 554.57 491.09 621.25 485.25C624.25 484.99 627.35 484.7 630.38 484.41C631.579 484.29 632.788 484.52 633.86 485.07C634.164 485.221 634.452 485.402 634.72 485.61C635.591 486.241 636.28 487.089 636.72 488.07C636.822 488.265 636.906 488.469 636.97 488.68C637.27 489.509 637.393 490.391 637.33 491.27Z" fill="black"/>
<path id="Vector_50" opacity="0.1" d="M298.1 504.96V508.15C298.101 509.31 297.772 510.446 297.152 511.427C296.533 512.408 295.648 513.192 294.6 513.69L254.5 514.46C253.434 513.971 252.53 513.186 251.897 512.199C251.265 511.211 250.929 510.063 250.93 508.89V505.89L298.1 504.96Z" fill="black"/>
<path id="Vector_51" d="M298.6 515.57L246.35 516.57V507.9L298.6 506.9V515.57Z" fill="#3F3D56"/>
<path id="Vector_52" opacity="0.1" d="M298.6 515.57L246.35 516.57V507.9L298.6 506.9V515.57Z" fill="black"/>
<path id="Vector_53" d="M300.6 515.57L248.35 516.57V507.9L300.6 506.9V515.57Z" fill="#3F3D56"/>
<g id="Group_2" opacity="0.1">
<path id="Vector_54" opacity="0.1" d="M473.59 188.65C472.613 187.381 471.964 185.89 471.7 184.31C471.459 185.855 471.603 187.435 472.12 188.91C472.616 188.864 473.108 188.777 473.59 188.65Z" fill="black"/>
<path id="Vector_55" opacity="0.1" d="M460.89 195.29C460.701 194.064 460.578 192.829 460.52 191.59C460.52 192.82 460.52 194.06 460.52 195.3L460.89 195.29Z" fill="black"/>
<path id="Vector_56" opacity="0.1" d="M542.39 228.66C542.445 227.769 542.566 226.883 542.75 226.01C543.223 224.489 543.492 222.912 543.55 221.32C543.528 220.963 543.474 220.608 543.39 220.26C543.22 221.18 542.95 222.1 542.75 223.01C542.351 224.865 542.229 226.769 542.39 228.66Z" fill="black"/>
<path id="Vector_57" opacity="0.1" d="M521.59 197.76L522.68 198.55C523.599 197.885 524.459 197.143 525.25 196.33C525.626 195.81 525.859 195.199 525.926 194.561C525.993 193.922 525.891 193.277 525.63 192.69C525.53 192.918 525.403 193.133 525.25 193.33C524.02 194.91 521.3 195.78 521.59 197.76Z" fill="black"/>
<path id="Vector_58" opacity="0.1" d="M439.42 207.38C439.055 208.109 438.764 208.873 438.55 209.66C440.114 208.787 441.799 208.15 443.55 207.77L439.42 207.38Z" fill="black"/>
<path id="Vector_59" opacity="0.1" d="M453.21 196.5C452.553 196.138 451.925 195.727 451.33 195.27C451.305 195.666 451.335 196.063 451.42 196.45C452.017 196.422 452.615 196.438 453.21 196.5Z" fill="black"/>
<path id="Vector_60" opacity="0.1" d="M550.98 255.42C550.57 260.27 548.31 264.94 546.48 269.54C542.81 278.76 540.74 288.54 539.19 298.35C537.8 307.14 536.19 317.12 528.69 321.99C526.547 323.27 524.253 324.278 521.86 324.99C511.08 328.72 500.21 332.46 488.86 333.82C477.51 335.18 465.6 333.99 455.7 328.33C452.83 326.832 450.366 324.66 448.52 322C445.85 317.77 445.8 312.47 444.52 307.63C443.429 304.036 442.092 300.521 440.52 297.11C438.31 291.73 436.61 286.11 434.92 280.58C433.353 275.44 431.79 270.297 430.23 265.15C429.716 263.602 429.335 262.013 429.09 260.4C428.7 262.96 429.46 265.64 430.23 268.15C431.79 273.303 433.353 278.447 434.92 283.58C436.61 289.15 438.31 294.73 440.52 300.11C442.092 303.521 443.429 307.036 444.52 310.63C445.78 315.47 445.83 320.77 448.52 325C450.366 327.66 452.83 329.832 455.7 331.33C465.6 336.99 477.54 338.18 488.86 336.82C500.18 335.46 511.04 331.72 521.86 327.99C524.253 327.278 526.547 326.27 528.69 324.99C536.14 320.12 537.8 310.14 539.19 301.35C540.74 291.54 542.81 281.76 546.48 272.54C548.66 267.06 551.48 261.49 551 255.6C551 255.54 550.98 255.48 550.98 255.42Z" fill="black"/>
<path id="Vector_61" opacity="0.1" d="M431.29 251.55C431.29 251.55 431.29 251.48 431.29 251.44C431.47 249.677 431.314 247.895 430.83 246.19C430.631 245.093 430.5 243.984 430.44 242.87C430.325 244.985 430.456 247.106 430.83 249.19C430.99 249.97 431.17 250.76 431.29 251.55Z" fill="black"/>
<path id="Vector_62" opacity="0.1" d="M434.34 227.09C435.109 225.798 435.982 224.571 436.95 223.42C435.12 225.17 431.74 223.61 431.03 221.18C430.768 222.163 430.768 223.197 431.03 224.18C431.276 224.914 431.712 225.569 432.293 226.08C432.875 226.592 433.581 226.94 434.34 227.09Z" fill="black"/>
</g>
<path id="Vector_63" opacity="0.1" d="M684.1 483.66C684.1 483.66 687.27 495.16 684.1 505.16C680.93 515.16 684.1 483.66 684.1 483.66Z" fill="black"/>
<path id="Vector_64" opacity="0.1" d="M697.6 495.39C697.6 495.39 698.93 509.99 695.93 512.58C692.93 515.17 697.6 495.39 697.6 495.39Z" fill="black"/>
<path id="Vector_65" d="M198.99 342.86L300.6 341.86" stroke="#D7385E" stroke-width="2" stroke-miterlimit="10"/>
<path id="Vector_66" d="M198.99 355.33L300.6 354.34" stroke="#D7385E" stroke-width="2" stroke-miterlimit="10"/>
<path id="Vector_67" d="M198.99 367.81L300.6 366.81" stroke="#D7385E" stroke-width="2" stroke-miterlimit="10"/>
</g>
</g>
<defs>
<clipPath id="clip0">
<rect width="1041.32" height="554.17" fill="white"/>
</clipPath>
</defs>
</svg>
